<?xml version="1.0" standalone="no"?>
<!DOCTYPE svg PUBLIC "-//W3C//DTD SVG 20010904//EN"
 "http://www.w3.org/TR/2001/REC-SVG-20010904/DTD/svg10.dtd">
<svg version="1.0" xmlns="http://www.w3.org/2000/svg"
 width="240.000000pt" height="240.000000pt" viewBox="0 0 240.000000 240.000000"
 preserveAspectRatio="xMidYMid meet">
<metadata>
Created by potrace 1.14, written by Peter Selinger 2001-2017
</metadata>
<g transform="translate(0.000000,240.000000) scale(0.100000,-0.100000)"
fill="#000000" stroke="none">
<path d="M448 2161 c-42 -9 -79 -19 -83 -23 -7 -7 24 -179 34 -191 7 -8 171
21 184 33 6 5 -5 79 -28 178 -6 25 -5 25 -107 3z"/>
<path d="M1115 1534 c-197 -286 -325 -464 -335 -463 -8 1 -28 5 -45 9 l-30 8
27 1 c15 0 29 5 32 10 6 9 -27 188 -36 196 -6 6 -171 -26 -181 -35 -5 -4 0
-50 10 -101 l19 -94 40 3 39 2 -40 -18 c-47 -22 -118 -96 -138 -144 -67 -162
26 -340 199 -379 41 -9 66 -10 102 -1 l47 11 97 -65 98 -64 545 0 545 0 0 100
0 100 -513 0 -512 0 -52 35 -51 34 15 48 c17 57 12 125 -15 187 l-20 43 319
464 c176 254 316 466 312 469 -11 9 -135 95 -148 103 -6 3 -153 -201 -330
-459z"/>
<path d="M508 1862 c-42 -10 -79 -20 -82 -23 -7 -6 24 -170 33 -182 7 -7 171
21 184 32 13 12 -27 186 -43 187 -8 1 -50 -5 -92 -14z"/>
<path d="M568 1571 c-42 -9 -79 -19 -83 -23 -7 -7 24 -179 34 -191 7 -8 171
21 184 33 6 5 -5 79 -28 178 -6 25 -5 25 -107 3z"/>
<path d="M550 110 l0 -100 655 0 655 0 0 100 0 100 -655 0 -655 0 0 -100z"/>
</g>
</svg>
